<svg width="40" height="16" viewBox="0 0 40 16" fill="none" xmlns="http://www.w3.org/2000/svg">
<path d="M39.05 7.47L32.05 0.469996C31.8571 0.282431 31.5787 0.212038 31.3198 0.285332C31.0609 0.358627 30.8608 0.564474 30.7948 0.825333C30.7289 1.08619 30.8071 1.36243 31 1.55L36.71 7.25H1.25C0.835786 7.25 0.5 7.58578 0.5 8C0.5 8.41421 0.835786 8.75 1.25 8.75H36.7L31 14.45C30.857 14.5893 30.7764 14.7804 30.7764 14.98C30.7764 15.1796 30.857 15.3707 31 15.51C31.1378 15.6546 31.3302 15.7345 31.53 15.73C31.729 15.7309 31.9201 15.6516 32.06 15.51L39.06 8.51C39.3524 8.21718 39.3524 7.74281 39.06 7.45L39.05 7.47Z" fill="white"/>
</svg>
