<svg width="918" height="459" viewBox="0 0 918 459" fill="none" xmlns="http://www.w3.org/2000/svg">
<mask id="path-1-inside-1_175_729" fill="white">
<path d="M918 459C918 337.266 869.641 220.517 783.562 134.438C697.483 48.3588 580.734 9.19069e-06 459 0C337.266 -9.19069e-06 220.517 48.3588 134.438 134.438C48.3588 220.517 1.83814e-05 337.266 0 459L275.4 459C275.4 410.306 294.744 363.607 329.175 329.175C363.607 294.744 410.306 275.4 459 275.4C507.694 275.4 554.393 294.744 588.825 329.175C623.256 363.607 642.6 410.306 642.6 459H918Z"/>
</mask>
<path d="M918 459C918 337.266 869.641 220.517 783.562 134.438C697.483 48.3588 580.734 9.19069e-06 459 0C337.266 -9.19069e-06 220.517 48.3588 134.438 134.438C48.3588 220.517 1.83814e-05 337.266 0 459L275.4 459C275.4 410.306 294.744 363.607 329.175 329.175C363.607 294.744 410.306 275.4 459 275.4C507.694 275.4 554.393 294.744 588.825 329.175C623.256 363.607 642.6 410.306 642.6 459H918Z" fill="white" fill-opacity="0.02" stroke="#7969D5" stroke-width="8" mask="url(#path-1-inside-1_175_729)"/>
</svg>
