<svg width="836" height="300" viewBox="0 0 836 300" fill="none" xmlns="http://www.w3.org/2000/svg">
<path d="M3.18392 124.256L2.75608 128.316L6.81608 128.744L7.24392 124.684L3.18392 124.256ZM689 147.5L689.341 147.866L689.347 147.86L689.354 147.854L689 147.5ZM833.541 2.95876H829.459V7.04124H833.541V2.95876ZM7.71741 130.602C7.89387 130.814 8.20911 130.844 8.42151 130.667C8.63391 130.491 8.66305 130.175 8.48658 129.963L7.71741 130.602ZM15.0007 137.604C14.8189 137.397 14.5031 137.375 14.2952 137.557C14.0873 137.739 14.066 138.055 14.2478 138.263L15.0007 137.604ZM20.852 145.641C21.0386 145.844 21.3549 145.858 21.5585 145.672C21.7621 145.485 21.7759 145.169 21.5894 144.965L20.852 145.641ZM28.4316 152.266C28.2405 152.066 27.924 152.059 27.7246 152.251C27.5253 152.442 27.5186 152.758 27.7097 152.958L28.4316 152.266ZM34.688 160.081C34.8833 160.276 35.1999 160.276 35.3951 160.081C35.5902 159.885 35.5901 159.569 35.3947 159.374L34.688 160.081ZM42.5107 166.335C42.3113 166.144 41.9948 166.151 41.8038 166.35C41.6128 166.549 41.6196 166.866 41.819 167.057L42.5107 166.335ZM49.1301 173.917C49.3334 174.104 49.6497 174.091 49.8366 173.888C50.0235 173.684 50.0101 173.368 49.8068 173.181L49.1301 173.917ZM57.1779 179.821C56.9709 179.638 56.6549 179.658 56.4722 179.865C56.2894 180.072 56.3091 180.388 56.5161 180.57L57.1779 179.821ZM64.1177 187.146C64.3284 187.325 64.6439 187.299 64.8224 187.088C65.001 186.878 64.975 186.562 64.7644 186.384L64.1177 187.146ZM72.3799 192.712C72.1658 192.538 71.8509 192.57 71.6765 192.784C71.5021 192.998 71.5343 193.313 71.7484 193.487L72.3799 192.712ZM79.6016 199.756C79.8191 199.926 80.1333 199.888 80.3035 199.67C80.4736 199.453 80.4352 199.138 80.2177 198.968L79.6016 199.756ZM88.0792 204.995C87.8585 204.829 87.545 204.873 87.3792 205.094C87.2133 205.315 87.2578 205.628 87.4786 205.794L88.0792 204.995ZM95.5634 211.744C95.7874 211.906 96.0999 211.855 96.2613 211.631C96.4228 211.407 96.3721 211.094 96.1481 210.933L95.5634 211.744ZM104.248 216.652C104.02 216.495 103.709 216.552 103.552 216.779C103.395 217.006 103.452 217.317 103.679 217.474L104.248 216.652ZM111.988 223.1C112.218 223.252 112.529 223.189 112.681 222.959C112.834 222.729 112.771 222.419 112.54 222.266L111.988 223.1ZM120.862 227.662C120.629 227.514 120.32 227.583 120.172 227.817C120.024 228.05 120.093 228.359 120.326 228.507L120.862 227.662ZM128.853 233.797C129.089 233.941 129.397 233.865 129.54 233.629C129.683 233.393 129.608 233.086 129.372 232.942L128.853 233.797ZM137.902 238C137.663 237.862 137.357 237.943 137.219 238.182C137.08 238.421 137.162 238.727 137.401 238.865L137.902 238ZM146.125 243.801C146.366 243.935 146.671 243.847 146.804 243.605C146.938 243.364 146.85 243.06 146.608 242.926L146.125 243.801ZM155.348 247.636C155.103 247.508 154.801 247.602 154.673 247.846C154.544 248.091 154.638 248.393 154.882 248.522L155.348 247.636ZM163.792 253.087C164.039 253.211 164.339 253.11 164.462 252.863C164.586 252.616 164.485 252.316 164.238 252.192L163.792 253.087ZM173.179 256.539C172.93 256.421 172.632 256.528 172.514 256.777C172.395 257.027 172.502 257.325 172.752 257.443L173.179 256.539ZM181.835 261.622C182.087 261.735 182.383 261.622 182.495 261.37C182.608 261.118 182.495 260.822 182.243 260.709L181.835 261.622ZM191.375 264.674C191.12 264.567 190.827 264.686 190.72 264.941C190.613 265.195 190.732 265.489 190.987 265.596L191.375 264.674ZM200.231 269.371C200.488 269.473 200.778 269.347 200.88 269.09C200.981 268.834 200.856 268.543 200.599 268.441L200.231 269.371ZM209.91 272.005C209.651 271.91 209.364 272.042 209.268 272.301C209.172 272.56 209.304 272.848 209.563 272.943L209.91 272.005ZM218.955 276.298C219.216 276.388 219.5 276.249 219.59 275.988C219.68 275.727 219.541 275.442 219.28 275.353L218.955 276.298ZM228.759 278.497C228.496 278.413 228.215 278.558 228.131 278.821C228.047 279.084 228.192 279.366 228.455 279.449L228.759 278.497ZM237.977 282.366C238.242 282.443 238.52 282.292 238.597 282.027C238.675 281.762 238.524 281.484 238.259 281.406L237.977 282.366ZM247.882 284.109C247.615 284.038 247.341 284.196 247.27 284.463C247.198 284.729 247.356 285.004 247.623 285.075L247.882 284.109ZM257.265 287.539C257.534 287.604 257.804 287.44 257.869 287.171C257.934 286.903 257.77 286.632 257.501 286.567L257.265 287.539ZM267.226 288.806C266.956 288.747 266.69 288.918 266.631 289.188C266.572 289.458 266.743 289.724 267.013 289.783L267.226 288.806ZM276.785 291.785C277.056 291.837 277.318 291.66 277.37 291.388C277.422 291.117 277.244 290.855 276.973 290.803L276.785 291.785ZM286.776 292.563C286.503 292.518 286.246 292.702 286.2 292.974C286.155 293.246 286.339 293.504 286.611 293.55L286.776 292.563ZM296.497 295.074C296.77 295.113 297.023 294.923 297.062 294.649C297.101 294.376 296.91 294.123 296.637 294.084L296.497 295.074ZM306.49 295.354C306.216 295.322 305.967 295.519 305.936 295.793C305.904 296.067 306.1 296.315 306.375 296.347L306.49 295.354ZM316.351 297.38C316.626 297.405 316.869 297.202 316.894 296.927C316.919 296.652 316.717 296.409 316.442 296.384L316.351 297.38ZM326.327 297.157C326.051 297.139 325.813 297.348 325.795 297.623C325.777 297.899 325.986 298.137 326.261 298.155L326.327 297.157ZM336.251 298.682C336.527 298.693 336.76 298.479 336.771 298.203C336.782 297.927 336.567 297.694 336.291 297.683L336.251 298.682ZM346.243 297.956C345.966 297.952 345.739 298.173 345.735 298.449C345.731 298.725 345.952 298.952 346.228 298.956L346.243 297.956ZM356.197 298.976C356.474 298.973 356.695 298.747 356.692 298.471C356.689 298.195 356.463 297.973 356.187 297.976L356.197 298.976ZM366.197 297.742C365.921 297.752 365.705 297.984 365.715 298.26C365.725 298.536 365.957 298.751 366.233 298.741L366.197 297.742ZM376.146 298.258C376.422 298.241 376.632 298.004 376.615 297.728C376.598 297.452 376.361 297.243 376.085 297.26L376.146 298.258ZM386.048 296.52C385.773 296.544 385.569 296.787 385.593 297.062C385.617 297.337 385.859 297.541 386.134 297.517L386.048 296.52ZM396.058 296.528C396.333 296.497 396.53 296.25 396.499 295.975C396.468 295.701 396.221 295.504 395.947 295.534L396.058 296.528ZM405.809 294.302C405.535 294.34 405.344 294.592 405.382 294.865C405.419 295.139 405.672 295.33 405.945 295.293L405.809 294.302ZM415.899 293.795C416.172 293.751 416.356 293.494 416.312 293.221C416.267 292.949 416.01 292.764 415.738 292.808L415.899 293.795ZM425.463 291.099C425.192 291.15 425.013 291.411 425.064 291.683C425.115 291.954 425.377 292.132 425.648 292.081L425.463 291.099ZM435.457 290.109C435.727 290.052 435.899 289.786 435.841 289.516C435.783 289.246 435.518 289.074 435.248 289.131L435.457 290.109ZM444.986 286.926C444.717 286.991 444.552 287.26 444.616 287.529C444.68 287.798 444.95 287.963 445.218 287.899L444.986 286.926ZM454.845 285.476C455.112 285.406 455.271 285.132 455.201 284.865C455.13 284.598 454.857 284.439 454.59 284.509L454.845 285.476ZM464.246 281.836C463.981 281.912 463.828 282.19 463.905 282.455C463.982 282.72 464.259 282.873 464.524 282.796L464.246 281.836ZM474.052 279.918C474.315 279.835 474.461 279.554 474.378 279.291C474.296 279.027 474.015 278.881 473.751 278.964L474.052 279.918ZM483.188 275.876C482.926 275.965 482.786 276.249 482.875 276.511C482.964 276.772 483.248 276.912 483.509 276.823L483.188 275.876ZM493.012 273.475C493.271 273.38 493.405 273.093 493.31 272.834C493.215 272.574 492.928 272.441 492.669 272.536L493.012 273.475ZM501.916 269.046C501.659 269.146 501.531 269.436 501.632 269.693C501.732 269.951 502.022 270.078 502.279 269.978L501.916 269.046ZM511.525 266.259C511.78 266.153 511.901 265.861 511.795 265.605C511.69 265.35 511.397 265.229 511.142 265.335L511.525 266.259ZM520.407 261.377C520.154 261.488 520.039 261.783 520.151 262.036C520.262 262.289 520.557 262.404 520.81 262.292L520.407 261.377ZM529.809 258.224C530.059 258.108 530.168 257.811 530.052 257.56C529.935 257.31 529.638 257.201 529.388 257.317L529.809 258.224ZM538.368 253.037C538.12 253.159 538.017 253.458 538.138 253.706C538.259 253.954 538.559 254.057 538.807 253.936L538.368 253.037ZM547.837 249.408C548.083 249.282 548.18 248.98 548.054 248.735C547.927 248.489 547.626 248.392 547.38 248.518L547.837 249.408ZM556.104 243.93C555.861 244.061 555.77 244.364 555.901 244.607C556.032 244.85 556.335 244.941 556.578 244.81L556.104 243.93ZM565.298 240.012C565.539 239.876 565.624 239.571 565.489 239.331C565.354 239.09 565.049 239.005 564.808 239.14L565.298 240.012ZM573.54 234.121C573.302 234.261 573.222 234.567 573.362 234.805C573.501 235.043 573.808 235.123 574.046 234.983L573.54 234.121ZM582.553 229.886C582.789 229.742 582.863 229.434 582.719 229.199C582.575 228.963 582.267 228.889 582.031 229.033L582.553 229.886ZM590.437 223.795C590.204 223.943 590.135 224.252 590.283 224.485C590.431 224.718 590.74 224.787 590.973 224.639L590.437 223.795ZM599.415 219.173C599.646 219.021 599.709 218.711 599.557 218.48C599.405 218.25 599.095 218.186 598.865 218.338L599.415 219.173ZM607.162 212.766C606.934 212.922 606.876 213.233 607.031 213.461C607.187 213.689 607.498 213.747 607.726 213.592L607.162 212.766ZM615.83 207.957C616.055 207.797 616.109 207.485 615.949 207.26C615.79 207.034 615.478 206.981 615.252 207.14L615.83 207.957ZM623.361 201.308C623.138 201.471 623.089 201.784 623.252 202.007C623.415 202.23 623.728 202.279 623.951 202.116L623.361 201.308ZM632.091 196.067C632.311 195.9 632.355 195.587 632.188 195.366C632.022 195.146 631.708 195.102 631.488 195.269L632.091 196.067ZM639.275 189.297C639.057 189.467 639.018 189.781 639.188 189.999C639.357 190.217 639.672 190.256 639.889 190.086L639.275 189.297ZM647.681 183.93C647.896 183.757 647.931 183.442 647.758 183.227C647.585 183.011 647.271 182.977 647.055 183.15L647.681 183.93ZM654.85 176.807C654.637 176.982 654.607 177.298 654.783 177.511C654.959 177.723 655.274 177.754 655.487 177.578L654.85 176.807ZM663.19 171.128C663.4 170.949 663.426 170.634 663.247 170.423C663.069 170.213 662.753 170.187 662.542 170.366L663.19 171.128ZM669.99 163.957C669.782 164.139 669.76 164.454 669.942 164.663C670.123 164.871 670.439 164.892 670.647 164.711L669.99 163.957ZM678.116 158.111C678.322 157.927 678.339 157.611 678.155 157.405C677.971 157.199 677.655 157.182 677.449 157.366L678.116 158.111ZM684.92 150.591C684.716 150.778 684.703 151.094 684.89 151.298C685.076 151.501 685.393 151.514 685.596 151.328L684.92 150.591ZM692.916 144.291C693.111 144.096 693.111 143.779 692.916 143.584C692.721 143.389 692.404 143.389 692.209 143.584L692.916 144.291ZM699.334 136.459C699.139 136.654 699.139 136.971 699.334 137.166C699.529 137.361 699.846 137.361 700.041 137.166L699.334 136.459ZM707.166 130.041C707.361 129.846 707.361 129.529 707.166 129.334C706.971 129.139 706.654 129.139 706.459 129.334L707.166 130.041ZM713.584 122.209C713.389 122.404 713.389 122.721 713.584 122.916C713.779 123.111 714.096 123.111 714.291 122.916L713.584 122.209ZM721.416 115.791C721.611 115.596 721.611 115.279 721.416 115.084C721.221 114.889 720.904 114.889 720.709 115.084L721.416 115.791ZM727.834 107.959C727.639 108.154 727.639 108.471 727.834 108.666C728.029 108.861 728.346 108.861 728.541 108.666L727.834 107.959ZM735.666 101.541C735.861 101.346 735.861 101.029 735.666 100.834C735.471 100.639 735.154 100.639 734.959 100.834L735.666 101.541ZM742.084 93.7089C741.889 93.9042 741.889 94.2208 742.084 94.4161C742.279 94.6113 742.596 94.6113 742.791 94.4161L742.084 93.7089ZM749.916 87.2911C750.111 87.0958 750.111 86.7792 749.916 86.5839C749.721 86.3887 749.404 86.3887 749.209 86.5839L749.916 87.2911ZM756.334 79.4589C756.139 79.6542 756.139 79.9708 756.334 80.1661C756.529 80.3613 756.846 80.3613 757.041 80.1661L756.334 79.4589ZM764.166 73.0411C764.361 72.8458 764.361 72.5292 764.166 72.3339C763.971 72.1387 763.654 72.1387 763.459 72.3339L764.166 73.0411ZM770.584 65.209C770.389 65.4042 770.389 65.7208 770.584 65.9161C770.779 66.1113 771.096 66.1113 771.291 65.9161L770.584 65.209ZM778.416 58.7911C778.611 58.5958 778.611 58.2792 778.416 58.0839C778.221 57.8887 777.904 57.8887 777.709 58.0839L778.416 58.7911ZM784.834 50.959C784.639 51.1542 784.639 51.4708 784.834 51.6661C785.029 51.8613 785.346 51.8613 785.541 51.6661L784.834 50.959ZM792.666 44.541C792.861 44.3458 792.861 44.0292 792.666 43.8339C792.471 43.6387 792.154 43.6387 791.959 43.8339L792.666 44.541ZM799.084 36.7089C798.889 36.9042 798.889 37.2208 799.084 37.416C799.279 37.6113 799.596 37.6113 799.791 37.416L799.084 36.7089ZM806.916 30.291C807.111 30.0958 807.111 29.7792 806.916 29.5839C806.721 29.3887 806.404 29.3887 806.209 29.5839L806.916 30.291ZM813.334 22.4589C813.139 22.6542 813.139 22.9708 813.334 23.166C813.529 23.3613 813.846 23.3613 814.041 23.166L813.334 22.4589ZM821.166 16.041C821.361 15.8458 821.361 15.5292 821.166 15.3339C820.971 15.1387 820.654 15.1387 820.459 15.3339L821.166 16.041ZM827.584 8.20893C827.389 8.40419 827.389 8.72077 827.584 8.91603C827.779 9.1113 828.096 9.1113 828.291 8.91603L827.584 8.20893ZM4.61134 126.815C5.62886 128.072 6.66427 129.334 7.71741 130.602L8.48658 129.963C7.43616 128.699 6.40347 127.439 5.38866 126.185L4.61134 126.815ZM14.2478 138.263C16.3864 140.709 18.5882 143.17 20.852 145.641L21.5894 144.965C19.3307 142.5 17.1341 140.045 15.0007 137.604L14.2478 138.263ZM27.7097 152.958C29.9807 155.327 32.3071 157.702 34.688 160.081L35.3947 159.374C33.019 157 30.6976 154.63 28.4316 152.266L27.7097 152.958ZM41.819 167.057C44.2069 169.345 46.6442 171.632 49.1301 173.917L49.8068 173.181C47.326 170.901 44.8937 168.618 42.5107 166.335L41.819 167.057ZM56.5161 180.57C59.0057 182.768 61.5398 184.961 64.1177 187.146L64.7644 186.384C62.1915 184.203 59.6625 182.014 57.1779 179.821L56.5161 180.57ZM71.7484 193.487C74.3259 195.587 76.9439 197.677 79.6016 199.756L80.2177 198.968C77.5652 196.894 74.9524 194.807 72.3799 192.712L71.7484 193.487ZM87.4786 205.794C90.1368 207.791 92.8319 209.775 95.5634 211.744L96.1481 210.933C93.422 208.968 90.7322 206.988 88.0792 204.995L87.4786 205.794ZM103.679 217.474C106.415 219.366 109.185 221.242 111.988 223.1L112.54 222.266C109.743 220.412 106.978 218.54 104.248 216.652L103.679 217.474ZM120.326 228.507C123.137 230.29 125.98 232.054 128.853 233.797L129.372 232.942C126.504 231.203 123.667 229.442 120.862 227.662L120.326 228.507ZM137.401 238.865C140.279 240.533 143.188 242.179 146.125 243.801L146.608 242.926C143.677 241.307 140.775 239.665 137.902 238L137.401 238.865ZM154.882 248.522C157.825 250.069 160.795 251.591 163.792 253.087L164.238 252.192C161.248 250.699 158.284 249.18 155.348 247.636L154.882 248.522ZM172.752 257.443C175.754 258.864 178.782 260.257 181.835 261.622L182.243 260.709C179.196 259.347 176.175 257.957 173.179 256.539L172.752 257.443ZM190.987 265.596C194.044 266.884 197.126 268.143 200.231 269.371L200.599 268.441C197.5 267.216 194.426 265.96 191.375 264.674L190.987 265.596ZM209.563 272.943C212.671 274.093 215.802 275.212 218.955 276.298L219.28 275.353C216.135 274.269 213.011 273.153 209.91 272.005L209.563 272.943ZM228.455 279.449C231.608 280.455 234.782 281.428 237.977 282.366L238.259 281.406C235.071 280.47 231.905 279.5 228.759 278.497L228.455 279.449ZM247.623 285.075C250.817 285.932 254.032 286.754 257.265 287.539L257.501 286.567C254.275 285.784 251.069 284.964 247.882 284.109L247.623 285.075ZM267.013 289.783C270.252 290.488 273.509 291.155 276.785 291.785L276.973 290.803C273.706 290.175 270.456 289.509 267.226 288.806L267.013 289.783ZM286.611 293.55C289.889 294.097 293.184 294.605 296.497 295.074L296.637 294.084C293.333 293.616 290.045 293.109 286.776 292.563L286.611 293.55ZM306.375 296.347C309.684 296.732 313.009 297.077 316.351 297.38L316.442 296.384C313.108 296.082 309.791 295.738 306.49 295.354L306.375 296.347ZM326.261 298.155C329.576 298.372 332.906 298.548 336.251 298.682L336.291 297.683C332.955 297.549 329.633 297.374 326.327 297.157L326.261 298.155ZM346.228 298.956C349.537 299.005 352.86 299.012 356.197 298.976L356.187 297.976C352.858 298.012 349.543 298.005 346.243 297.956L346.228 298.956ZM366.233 298.741C369.525 298.622 372.829 298.461 376.146 298.258L376.085 297.26C372.776 297.463 369.48 297.623 366.197 297.742L366.233 298.741ZM386.134 297.517C389.431 297.23 392.739 296.901 396.058 296.528L395.947 295.534C392.635 295.906 389.336 296.235 386.048 296.52L386.134 297.517ZM405.945 295.293C409.252 294.837 412.57 294.339 415.899 293.795L415.738 292.808C412.417 293.35 409.108 293.848 405.809 294.302L405.945 295.293ZM425.648 292.081C428.908 291.467 432.177 290.81 435.457 290.109L435.248 289.131C431.976 289.831 428.715 290.486 425.463 291.099L425.648 292.081ZM445.218 287.899C448.418 287.134 451.627 286.326 454.845 285.476L454.59 284.509C451.38 285.358 448.178 286.163 444.986 286.926L445.218 287.899ZM464.524 282.796C467.692 281.879 470.868 280.919 474.052 279.918L473.751 278.964C470.575 279.963 467.406 280.92 464.246 281.836L464.524 282.796ZM483.509 276.823C486.669 275.75 489.837 274.634 493.012 273.475L492.669 272.536C489.501 273.692 486.341 274.805 483.188 275.876L483.509 276.823ZM502.279 269.978C505.355 268.779 508.437 267.54 511.525 266.259L511.142 265.335C508.06 266.613 504.985 267.85 501.916 269.046L502.279 269.978ZM520.81 262.292C523.804 260.976 526.803 259.62 529.809 258.224L529.388 257.317C526.388 258.71 523.395 260.063 520.407 261.377L520.81 262.292ZM538.807 253.936C541.812 252.467 544.822 250.957 547.837 249.408L547.38 248.518C544.371 250.065 541.366 251.571 538.368 253.037L538.807 253.936ZM556.578 244.81C559.48 243.249 562.387 241.649 565.298 240.012L564.808 239.14C561.902 240.775 559.001 242.371 556.104 243.93L556.578 244.81ZM574.046 234.983C576.878 233.321 579.713 231.622 582.553 229.886L582.031 229.033C579.197 230.766 576.366 232.462 573.54 234.121L574.046 234.983ZM590.973 224.639C593.783 222.853 596.597 221.032 599.415 219.173L598.865 218.338C596.052 220.194 593.242 222.012 590.437 223.795L590.973 224.639ZM607.726 213.592C610.424 211.747 613.125 209.869 615.83 207.957L615.252 207.14C612.552 209.05 609.856 210.925 607.162 212.766L607.726 213.592ZM623.951 202.116C626.661 200.134 629.375 198.118 632.091 196.067L631.488 195.269C628.776 197.317 626.067 199.33 623.361 201.308L623.951 202.116ZM639.889 190.086C642.484 188.067 645.081 186.014 647.681 183.93L647.055 183.15C644.459 185.231 641.866 187.28 639.275 189.297L639.889 190.086ZM655.487 177.578C658.052 175.46 660.62 173.31 663.19 171.128L662.542 170.366C659.976 172.545 657.412 174.692 654.85 176.807L655.487 177.578ZM670.647 164.711C673.135 162.541 675.625 160.342 678.116 158.111L677.449 157.366C674.961 159.594 672.474 161.791 669.99 163.957L670.647 164.711ZM685.596 151.328C686.844 150.182 688.092 149.028 689.341 147.866L688.659 147.134C687.412 148.294 686.166 149.447 684.92 150.591L685.596 151.328ZM689.354 147.854L692.916 144.291L692.209 143.584L688.646 147.146L689.354 147.854ZM700.041 137.166L707.166 130.041L706.459 129.334L699.334 136.459L700.041 137.166ZM714.291 122.916L721.416 115.791L720.709 115.084L713.584 122.209L714.291 122.916ZM728.541 108.666L735.666 101.541L734.959 100.834L727.834 107.959L728.541 108.666ZM742.791 94.4161L749.916 87.2911L749.209 86.5839L742.084 93.7089L742.791 94.4161ZM757.041 80.1661L764.166 73.0411L763.459 72.3339L756.334 79.4589L757.041 80.1661ZM771.291 65.9161L778.416 58.7911L777.709 58.0839L770.584 65.209L771.291 65.9161ZM785.541 51.6661L792.666 44.541L791.959 43.8339L784.834 50.959L785.541 51.6661ZM799.791 37.416L806.916 30.291L806.209 29.5839L799.084 36.7089L799.791 37.416ZM814.041 23.166L821.166 16.041L820.459 15.3339L813.334 22.4589L814.041 23.166ZM828.291 8.91603L831.854 5.35355L831.146 4.64645L827.584 8.20893L828.291 8.91603ZM1.36784 122.012L0.512156 130.132L8.63216 130.988L9.48784 122.868L1.36784 122.012ZM689 147.5L689.681 148.232L689.694 148.22L689.707 148.207L689 147.5ZM835.582 0.917517H827.418V9.08248H835.582V0.917517ZM7.33282 130.922C7.68575 131.346 8.31623 131.405 8.74103 131.052C9.16584 130.699 9.2241 130.068 8.87117 129.644L7.33282 130.922ZM15.3771 137.275C15.0136 136.86 14.3819 136.817 13.9661 137.181C13.5503 137.544 13.5078 138.176 13.8713 138.592L15.3771 137.275ZM20.4834 145.979C20.8564 146.386 21.489 146.413 21.8962 146.04C22.3034 145.667 22.3311 145.035 21.958 144.628L20.4834 145.979ZM28.7926 151.92C28.4104 151.521 27.7774 151.507 27.3787 151.89C26.98 152.272 26.9666 152.905 27.3487 153.303L28.7926 151.92ZM34.3346 160.435C34.7253 160.825 35.3584 160.825 35.7488 160.434C36.1391 160.043 36.1388 159.41 35.7481 159.02L34.3346 160.435ZM42.8566 165.974C42.4578 165.592 41.8248 165.605 41.4427 166.004C41.0607 166.403 41.0743 167.036 41.4731 167.418L42.8566 165.974ZM48.7917 174.285C49.1983 174.659 49.8309 174.633 50.2047 174.226C50.5784 173.819 50.5518 173.187 50.1452 172.813L48.7917 174.285ZM57.5088 179.446C57.0948 179.08 56.4628 179.12 56.0973 179.534C55.7318 179.948 55.7712 180.58 56.1852 180.945L57.5088 179.446ZM63.7944 187.528C64.2157 187.885 64.8467 187.833 65.2038 187.412C65.561 186.99 65.509 186.359 65.0877 186.002L63.7944 187.528ZM72.6957 192.324C72.2675 191.976 71.6376 192.04 71.2888 192.468C70.94 192.896 71.0044 193.526 71.4326 193.875L72.6957 192.324ZM79.2935 200.15C79.7286 200.49 80.357 200.413 80.6973 199.978C81.0376 199.543 80.9607 198.915 80.5257 198.574L79.2935 200.15ZM88.3796 204.595C87.938 204.263 87.3111 204.352 86.9794 204.794C86.6477 205.235 86.7367 205.862 87.1783 206.194L88.3796 204.595ZM95.271 212.15C95.719 212.473 96.344 212.371 96.6669 211.923C96.9899 211.475 96.8885 210.85 96.4405 210.527L95.271 212.15ZM104.532 216.241C104.078 215.927 103.455 216.04 103.141 216.494C102.827 216.949 102.94 217.572 103.394 217.886L104.532 216.241ZM111.712 223.517C112.172 223.822 112.793 223.696 113.098 223.235C113.403 222.775 113.277 222.154 112.817 221.849L111.712 223.517ZM121.13 227.24C120.664 226.944 120.046 227.082 119.75 227.549C119.454 228.015 119.592 228.633 120.058 228.929L121.13 227.24ZM128.594 234.225C129.066 234.511 129.681 234.361 129.968 233.889C130.254 233.416 130.104 232.801 129.631 232.515L128.594 234.225ZM138.153 237.567C137.675 237.291 137.063 237.454 136.786 237.931C136.509 238.409 136.672 239.021 137.15 239.298L138.153 237.567ZM145.883 244.239C146.366 244.506 146.975 244.331 147.242 243.847C147.509 243.364 147.333 242.755 146.85 242.488L145.883 244.239ZM155.58 247.194C155.092 246.937 154.487 247.125 154.23 247.614C153.973 248.103 154.161 248.707 154.65 248.964L155.58 247.194ZM163.568 253.535C164.062 253.781 164.663 253.581 164.91 253.087C165.156 252.592 164.956 251.992 164.462 251.745L163.568 253.535ZM173.393 256.087C172.894 255.851 172.298 256.064 172.062 256.564C171.825 257.063 172.039 257.659 172.538 257.895L173.393 256.087ZM181.631 262.079C182.135 262.304 182.726 262.078 182.952 261.574C183.177 261.07 182.951 260.478 182.447 260.253L181.631 262.079ZM191.569 264.213C191.06 263.999 190.474 264.238 190.259 264.747C190.045 265.256 190.283 265.842 190.792 266.057L191.569 264.213ZM200.047 269.836C200.561 270.039 201.142 269.788 201.345 269.274C201.548 268.761 201.296 268.18 200.783 267.977L200.047 269.836ZM210.084 271.537C209.566 271.345 208.991 271.609 208.799 272.127C208.607 272.645 208.872 273.221 209.39 273.412L210.084 271.537ZM218.792 276.771C219.314 276.951 219.883 276.673 220.063 276.151C220.243 275.629 219.965 275.06 219.443 274.88L218.792 276.771ZM228.911 278.02C228.385 277.853 227.823 278.143 227.655 278.669C227.487 279.195 227.777 279.758 228.304 279.926L228.911 278.02ZM237.836 282.845C238.366 283.001 238.922 282.698 239.077 282.168C239.233 281.638 238.929 281.082 238.399 280.926L237.836 282.845ZM248.012 283.626C247.478 283.483 246.93 283.8 246.787 284.333C246.644 284.867 246.96 285.415 247.494 285.558L248.012 283.626ZM257.147 288.025C257.684 288.155 258.225 287.826 258.355 287.289C258.485 286.753 258.156 286.212 257.619 286.081L257.147 288.025ZM267.332 288.317C266.792 288.2 266.26 288.542 266.142 289.082C266.025 289.622 266.367 290.154 266.907 290.272L267.332 288.317ZM276.69 292.276C277.232 292.38 277.757 292.025 277.861 291.483C277.965 290.94 277.61 290.416 277.068 290.312L276.69 292.276ZM286.858 292.07C286.313 291.979 285.798 292.347 285.707 292.892C285.616 293.436 285.984 293.952 286.529 294.043L286.858 292.07ZM296.427 295.569C296.974 295.647 297.48 295.266 297.557 294.719C297.634 294.172 297.254 293.666 296.707 293.589L296.427 295.569ZM306.548 294.857C305.999 294.794 305.503 295.187 305.439 295.735C305.375 296.284 305.768 296.78 306.317 296.844L306.548 294.857ZM316.306 297.878C316.856 297.928 317.342 297.523 317.392 296.973C317.442 296.423 317.037 295.936 316.487 295.886L316.306 297.878ZM326.359 296.658C325.808 296.622 325.332 297.039 325.296 297.59C325.26 298.141 325.677 298.618 326.228 298.654L326.359 296.658ZM336.231 299.182C336.783 299.204 337.248 298.775 337.27 298.223C337.293 297.671 336.863 297.206 336.311 297.184L336.231 299.182ZM346.25 297.456C345.698 297.448 345.243 297.889 345.235 298.441C345.227 298.993 345.668 299.448 346.22 299.456L346.25 297.456ZM356.203 299.476C356.755 299.47 357.198 299.018 357.192 298.466C357.186 297.914 356.734 297.471 356.181 297.476L356.203 299.476ZM366.179 297.242C365.627 297.262 365.196 297.726 365.216 298.278C365.236 298.83 365.699 299.261 366.251 299.241L366.179 297.242ZM376.177 298.757C376.728 298.723 377.148 298.249 377.114 297.697C377.08 297.146 376.605 296.727 376.054 296.76L376.177 298.757ZM386.005 296.022C385.454 296.07 385.047 296.555 385.095 297.105C385.143 297.655 385.628 298.063 386.178 298.015L386.005 296.022ZM396.114 297.025C396.663 296.963 397.058 296.469 396.996 295.92C396.935 295.371 396.44 294.976 395.891 295.038L396.114 297.025ZM405.741 293.807C405.194 293.882 404.811 294.387 404.886 294.934C404.962 295.481 405.466 295.863 406.013 295.788L405.741 293.807ZM415.98 294.289C416.525 294.2 416.894 293.686 416.805 293.141C416.716 292.596 416.202 292.226 415.657 292.315L415.98 294.289ZM425.371 290.607C424.828 290.71 424.471 291.232 424.573 291.775C424.675 292.318 425.198 292.675 425.741 292.573L425.371 290.607ZM435.561 290.598C436.101 290.483 436.445 289.951 436.33 289.411C436.215 288.871 435.683 288.527 435.143 288.642L435.561 290.598ZM444.87 286.44C444.332 286.569 444.001 287.108 444.13 287.645C444.258 288.182 444.798 288.514 445.335 288.385L444.87 286.44ZM454.973 285.96C455.507 285.819 455.825 285.271 455.684 284.737C455.543 284.203 454.996 283.885 454.462 284.026L454.973 285.96ZM464.107 281.355C463.576 281.509 463.271 282.064 463.424 282.594C463.578 283.125 464.133 283.43 464.663 283.276L464.107 281.355ZM474.202 280.395C474.728 280.229 475.021 279.667 474.855 279.141C474.69 278.614 474.128 278.321 473.601 278.487L474.202 280.395ZM483.027 275.403C482.504 275.581 482.224 276.148 482.401 276.671C482.579 277.194 483.147 277.474 483.67 277.297L483.027 275.403ZM493.183 273.945C493.702 273.755 493.969 273.181 493.78 272.662C493.59 272.144 493.016 271.877 492.497 272.066L493.183 273.945ZM501.734 268.58C501.22 268.781 500.965 269.361 501.166 269.875C501.366 270.39 501.946 270.644 502.461 270.444L501.734 268.58ZM511.717 266.721C512.227 266.509 512.469 265.924 512.257 265.414C512.046 264.904 511.461 264.662 510.951 264.873L511.717 266.721ZM520.206 260.919C519.7 261.142 519.471 261.732 519.693 262.237C519.915 262.743 520.505 262.972 521.011 262.75L520.206 260.919ZM530.019 258.678C530.52 258.445 530.738 257.851 530.505 257.35C530.273 256.849 529.678 256.631 529.177 256.864L530.019 258.678ZM538.148 252.588C537.652 252.831 537.446 253.43 537.689 253.926C537.931 254.422 538.53 254.628 539.026 254.385L538.148 252.588ZM548.066 249.853C548.557 249.6 548.751 248.997 548.498 248.506C548.246 248.015 547.643 247.821 547.152 248.074L548.066 249.853ZM555.867 243.49C555.381 243.751 555.199 244.358 555.46 244.844C555.722 245.33 556.329 245.512 556.815 245.251L555.867 243.49ZM565.543 240.447C566.025 240.177 566.196 239.567 565.925 239.085C565.654 238.604 565.044 238.433 564.563 238.704L565.543 240.447ZM573.286 233.69C572.81 233.969 572.651 234.582 572.93 235.059C573.21 235.535 573.823 235.694 574.299 235.415L573.286 233.69ZM582.814 230.313C583.285 230.025 583.433 229.409 583.145 228.938C582.857 228.467 582.242 228.318 581.771 228.606L582.814 230.313ZM590.169 223.372C589.702 223.669 589.565 224.287 589.861 224.753C590.157 225.219 590.775 225.357 591.241 225.061L590.169 223.372ZM599.691 219.59C600.152 219.286 600.279 218.666 599.975 218.205C599.671 217.744 599.05 217.617 598.589 217.921L599.691 219.59ZM606.88 212.353C606.424 212.665 606.307 213.287 606.619 213.743C606.93 214.199 607.553 214.316 608.009 214.004L606.88 212.353ZM616.118 208.365C616.569 208.046 616.676 207.422 616.357 206.971C616.038 206.52 615.414 206.413 614.963 206.732L616.118 208.365ZM623.066 200.905C622.62 201.231 622.523 201.856 622.849 202.302C623.175 202.748 623.8 202.845 624.246 202.519L623.066 200.905ZM632.392 196.466C632.833 196.133 632.92 195.506 632.587 195.065C632.255 194.624 631.628 194.537 631.187 194.87L632.392 196.466ZM638.968 188.903C638.532 189.242 638.454 189.87 638.793 190.306C639.132 190.742 639.761 190.82 640.197 190.481L638.968 188.903ZM647.994 184.32C648.425 183.974 648.494 183.345 648.148 182.914C647.803 182.483 647.173 182.414 646.742 182.76L647.994 184.32ZM654.532 176.421C654.106 176.773 654.046 177.403 654.397 177.829C654.749 178.255 655.379 178.315 655.805 177.963L654.532 176.421ZM663.513 171.509C663.934 171.152 663.986 170.521 663.628 170.1C663.271 169.679 662.64 169.627 662.219 169.985L663.513 171.509ZM669.661 163.58C669.245 163.943 669.202 164.575 669.565 164.991C669.928 165.407 670.559 165.451 670.976 165.088L669.661 163.58ZM678.45 158.484C678.861 158.115 678.896 157.483 678.528 157.072C678.159 156.66 677.527 156.625 677.116 156.994L678.45 158.484ZM684.581 150.223C684.175 150.597 684.148 151.229 684.521 151.636C684.895 152.043 685.528 152.07 685.934 151.696L684.581 150.223ZM693.27 144.645C693.66 144.254 693.66 143.621 693.27 143.23C692.879 142.84 692.246 142.84 691.855 143.23L693.27 144.645ZM698.98 136.105C698.59 136.496 698.59 137.129 698.98 137.52C699.371 137.91 700.004 137.91 700.395 137.52L698.98 136.105ZM707.52 130.395C707.91 130.004 707.91 129.371 707.52 128.98C707.129 128.59 706.496 128.59 706.105 128.98L707.52 130.395ZM713.23 121.855C712.84 122.246 712.84 122.879 713.23 123.27C713.621 123.66 714.254 123.66 714.645 123.27L713.23 121.855ZM721.77 116.145C722.16 115.754 722.16 115.121 721.77 114.73C721.379 114.34 720.746 114.34 720.355 114.73L721.77 116.145ZM727.48 107.605C727.09 107.996 727.09 108.629 727.48 109.02C727.871 109.41 728.504 109.41 728.895 109.02L727.48 107.605ZM736.02 101.895C736.41 101.504 736.41 100.871 736.02 100.48C735.629 100.09 734.996 100.09 734.605 100.48L736.02 101.895ZM741.73 93.3554C741.34 93.7459 741.34 94.3791 741.73 94.7696C742.121 95.1601 742.754 95.1601 743.145 94.7696L741.73 93.3554ZM750.27 87.6446C750.66 87.2541 750.66 86.6209 750.27 86.2304C749.879 85.8399 749.246 85.8399 748.855 86.2304L750.27 87.6446ZM755.98 79.1054C755.59 79.4959 755.59 80.1291 755.98 80.5196C756.371 80.9101 757.004 80.9101 757.395 80.5196L755.98 79.1054ZM764.52 73.3946C764.91 73.0041 764.91 72.3709 764.52 71.9804C764.129 71.5899 763.496 71.5899 763.105 71.9804L764.52 73.3946ZM770.23 64.8554C769.84 65.2459 769.84 65.8791 770.23 66.2696C770.621 66.6601 771.254 66.6601 771.645 66.2696L770.23 64.8554ZM778.77 59.1446C779.16 58.7541 779.16 58.1209 778.77 57.7304C778.379 57.3399 777.746 57.3399 777.355 57.7304L778.77 59.1446ZM784.48 50.6054C784.09 50.9959 784.09 51.6291 784.48 52.0196C784.871 52.4101 785.504 52.4101 785.895 52.0196L784.48 50.6054ZM793.02 44.8946C793.41 44.5041 793.41 43.8709 793.02 43.4804C792.629 43.0899 791.996 43.0899 791.605 43.4804L793.02 44.8946ZM798.73 36.3554C798.34 36.7459 798.34 37.3791 798.73 37.7696C799.121 38.1601 799.754 38.1601 800.145 37.7696L798.73 36.3554ZM807.27 30.6446C807.66 30.2541 807.66 29.6209 807.27 29.2304C806.879 28.8399 806.246 28.8399 805.855 29.2304L807.27 30.6446ZM812.98 22.1054C812.59 22.4959 812.59 23.1291 812.98 23.5196C813.371 23.9101 814.004 23.9101 814.395 23.5196L812.98 22.1054ZM821.52 16.3946C821.91 16.0041 821.91 15.3709 821.52 14.9804C821.129 14.5899 820.496 14.5899 820.105 14.9804L821.52 16.3946ZM827.23 7.85537C826.84 8.2459 826.84 8.87906 827.23 9.26959C827.621 9.66011 828.254 9.66011 828.645 9.26959L827.23 7.85537ZM4.22268 127.129C5.24156 128.388 6.27833 129.652 7.33282 130.922L8.87117 129.644C7.8221 128.381 6.79077 127.123 5.77732 125.871L4.22268 127.129ZM13.8713 138.592C16.0125 141.041 18.2169 143.505 20.4834 145.979L21.958 144.628C19.702 142.165 17.508 139.713 15.3771 137.275L13.8713 138.592ZM27.3487 153.303C29.6222 155.675 31.9512 158.054 34.3346 160.435L35.7481 159.02C33.3749 156.649 31.0561 154.281 28.7926 151.92L27.3487 153.303ZM41.4731 167.418C43.8635 169.708 46.3033 171.998 48.7917 174.285L50.1452 172.813C47.6669 170.535 45.2371 168.254 42.8566 165.974L41.4731 167.418ZM56.1852 180.945C58.6773 183.145 61.2139 185.34 63.7944 187.528L65.0877 186.002C62.5174 183.823 59.9909 181.637 57.5088 179.446L56.1852 180.945ZM71.4326 193.875C74.0127 195.977 76.6332 198.069 79.2935 200.15L80.5257 198.574C77.8758 196.502 75.2656 194.418 72.6957 192.324L71.4326 193.875ZM87.1783 206.194C89.8391 208.193 92.5368 210.179 95.271 212.15L96.4405 210.527C93.7171 208.564 91.0299 206.586 88.3796 204.595L87.1783 206.194ZM103.394 217.886C106.133 219.78 108.906 221.657 111.712 223.517L112.817 221.849C110.021 219.997 107.26 218.127 104.532 216.241L103.394 217.886ZM120.058 228.929C122.872 230.714 125.717 232.48 128.594 234.225L129.631 232.515C126.766 230.777 123.932 229.018 121.13 227.24L120.058 228.929ZM137.15 239.298C140.032 240.968 142.943 242.615 145.883 244.239L146.85 242.488C143.922 240.871 141.023 239.23 138.153 237.567L137.15 239.298ZM154.65 248.964C157.595 250.513 160.568 252.037 163.568 253.535L164.462 251.745C161.474 250.254 158.514 248.736 155.58 247.194L154.65 248.964ZM172.538 257.895C175.543 259.317 178.574 260.712 181.631 262.079L182.447 260.253C179.404 258.892 176.386 257.503 173.393 256.087L172.538 257.895ZM190.792 266.057C193.853 267.346 196.938 268.607 200.047 269.836L200.783 267.977C197.688 266.752 194.616 265.497 191.569 264.213L190.792 266.057ZM209.39 273.412C212.501 274.563 215.635 275.683 218.792 276.771L219.443 274.88C216.301 273.797 213.181 272.683 210.084 271.537L209.39 273.412ZM228.304 279.926C231.46 280.933 234.638 281.906 237.836 282.845L238.399 280.926C235.216 279.992 232.053 279.022 228.911 278.02L228.304 279.926ZM247.494 285.558C250.692 286.416 253.91 287.238 257.147 288.025L257.619 286.081C254.397 285.299 251.195 284.48 248.012 283.626L247.494 285.558ZM266.907 290.272C270.149 290.977 273.411 291.646 276.69 292.276L277.068 290.312C273.804 289.685 270.559 289.019 267.332 288.317L266.907 290.272ZM286.529 294.043C289.81 294.591 293.11 295.1 296.427 295.569L296.707 293.589C293.407 293.122 290.124 292.615 286.858 292.07L286.529 294.043ZM306.317 296.844C309.63 297.229 312.96 297.574 316.306 297.878L316.487 295.886C313.158 295.584 309.844 295.241 306.548 294.857L306.317 296.844ZM326.228 298.654C329.548 298.871 332.882 299.048 336.231 299.182L336.311 297.184C332.979 297.05 329.662 296.874 326.359 296.658L326.228 298.654ZM346.22 299.456C349.534 299.505 352.861 299.512 356.203 299.476L356.181 297.476C352.857 297.512 349.547 297.505 346.25 297.456L346.22 299.456ZM366.251 299.241C369.547 299.122 372.856 298.961 376.177 298.757L376.054 296.76C372.75 296.963 369.458 297.124 366.179 297.242L366.251 299.241ZM386.178 298.015C389.478 297.728 392.79 297.398 396.114 297.025L395.891 295.038C392.584 295.409 389.288 295.737 386.005 296.022L386.178 298.015ZM406.013 295.788C409.325 295.332 412.647 294.833 415.98 294.289L415.657 292.315C412.341 292.856 409.035 293.353 405.741 293.807L406.013 295.788ZM425.741 292.573C429.004 291.958 432.278 291.3 435.561 290.598L435.143 288.642C431.876 289.341 428.618 289.996 425.371 290.607L425.741 292.573ZM445.335 288.385C448.539 287.619 451.751 286.811 454.973 285.96L454.462 284.026C451.256 284.873 448.058 285.678 444.87 286.44L445.335 288.385ZM464.663 283.276C467.835 282.358 471.014 281.398 474.202 280.395L473.601 278.487C470.428 279.485 467.264 280.441 464.107 281.355L464.663 283.276ZM483.67 277.297C486.834 276.222 490.005 275.105 493.183 273.945L492.497 272.066C489.333 273.221 486.176 274.333 483.027 275.403L483.67 277.297ZM502.461 270.444C505.539 269.244 508.625 268.003 511.717 266.721L510.951 264.873C507.872 266.15 504.8 267.385 501.734 268.58L502.461 270.444ZM521.011 262.75C524.008 261.432 527.011 260.075 530.019 258.678L529.177 256.864C526.181 258.255 523.19 259.607 520.206 260.919L521.011 262.75ZM539.026 254.385C542.034 252.914 545.047 251.404 548.066 249.853L547.152 248.074C544.145 249.619 541.144 251.123 538.148 252.588L539.026 254.385ZM556.815 245.251C559.72 243.688 562.629 242.087 565.543 240.447L564.563 238.704C561.66 240.337 558.761 241.932 555.867 243.49L556.815 245.251ZM574.299 235.415C577.133 233.751 579.971 232.05 582.814 230.313L581.771 228.606C578.938 230.338 576.11 232.032 573.286 233.69L574.299 235.415ZM591.241 225.061C594.054 223.274 596.87 221.45 599.691 219.59L598.589 217.921C595.779 219.775 592.972 221.592 590.169 223.372L591.241 225.061ZM608.009 214.004C610.709 212.159 613.412 210.279 616.118 208.365L614.963 206.732C612.266 208.64 609.571 210.514 606.88 212.353L608.009 214.004ZM624.246 202.519C626.959 200.536 629.674 198.519 632.392 196.466L631.187 194.87C628.477 196.916 625.77 198.928 623.066 200.905L624.246 202.519ZM640.197 190.481C642.793 188.46 645.392 186.406 647.994 184.32L646.742 182.76C644.148 184.84 641.557 186.887 638.968 188.903L640.197 190.481ZM655.805 177.963C658.372 175.844 660.942 173.693 663.513 171.509L662.219 169.985C659.654 172.162 657.092 174.308 654.532 176.421L655.805 177.963ZM670.976 165.088C673.465 162.917 675.956 160.716 678.45 158.484L677.116 156.994C674.629 159.22 672.144 161.415 669.661 163.58L670.976 165.088ZM685.934 151.696C687.183 150.549 688.432 149.394 689.681 148.232L688.319 146.768C687.073 147.927 685.827 149.079 684.581 150.223L685.934 151.696ZM689.707 148.207L693.27 144.645L691.855 143.23L688.293 146.793L689.707 148.207ZM700.395 137.52L707.52 130.395L706.105 128.98L698.98 136.105L700.395 137.52ZM714.645 123.27L721.77 116.145L720.355 114.73L713.23 121.855L714.645 123.27ZM728.895 109.02L736.02 101.895L734.605 100.48L727.48 107.605L728.895 109.02ZM743.145 94.7696L750.27 87.6446L748.855 86.2304L741.73 93.3554L743.145 94.7696ZM757.395 80.5196L764.52 73.3946L763.105 71.9804L755.98 79.1054L757.395 80.5196ZM771.645 66.2696L778.77 59.1446L777.355 57.7304L770.23 64.8554L771.645 66.2696ZM785.895 52.0196L793.02 44.8946L791.605 43.4804L784.48 50.6054L785.895 52.0196ZM800.145 37.7696L807.27 30.6446L805.855 29.2304L798.73 36.3554L800.145 37.7696ZM814.395 23.5196L821.52 16.3946L820.105 14.9804L812.98 22.1054L814.395 23.5196ZM828.645 9.26959L832.207 5.70711L830.793 4.29289L827.23 7.85537L828.645 9.26959Z" fill="white" fill-opacity="0.6"/>
</svg>
