<svg width="24" height="24" viewBox="0 0 24 24" fill="none" xmlns="http://www.w3.org/2000/svg">
<path d="M9.29006 8.71006C9.10176 8.52175 8.99597 8.26636 8.99597 8.00006C8.99597 7.73376 9.10176 7.47836 9.29006 7.29006C9.47837 7.10176 9.73376 6.99597 10.0001 6.99597C10.2664 6.99597 10.5218 7.10176 10.7101 7.29006L14.7101 11.2901C14.8038 11.383 14.8782 11.4936 14.929 11.6155C14.9797 11.7373 15.0059 11.868 15.0059 12.0001C15.0059 12.1321 14.9797 12.2628 14.929 12.3846C14.8782 12.5065 14.8038 12.6171 14.7101 12.7101L10.7101 16.7101C10.6168 16.8033 10.5061 16.8773 10.3843 16.9277C10.2625 16.9782 10.1319 17.0041 10.0001 17.0041C9.8682 17.0041 9.73763 16.9782 9.61581 16.9277C9.49399 16.8773 9.3833 16.8033 9.29006 16.7101C9.19682 16.6168 9.12286 16.5061 9.0724 16.3843C9.02194 16.2625 8.99597 16.1319 8.99597 16.0001C8.99597 15.8682 9.02194 15.7376 9.0724 15.6158C9.12286 15.494 9.19682 15.3833 9.29006 15.2901L12.5901 12.0001L9.29006 8.71006Z" fill="white"/>
</svg>
