<svg width="6" height="4" viewBox="0 0 6 4" fill="none" xmlns="http://www.w3.org/2000/svg">
<path d="M0.171583 3.00011L2.50491 0.66678C2.55914 0.612105 2.62366 0.568709 2.69474 0.539094C2.76583 0.509479 2.84207 0.494231 2.91908 0.494231C2.99609 0.494231 3.07233 0.509479 3.14342 0.539093C3.2145 0.568709 3.27902 0.612105 3.33325 0.66678L5.66658 3.00011C5.72097 3.0545 5.76411 3.11907 5.79355 3.19013C5.82298 3.2612 5.83813 3.33736 5.83813 3.41428C5.83813 3.4912 5.82298 3.56736 5.79355 3.63843C5.76411 3.70949 5.72097 3.77406 5.66658 3.82845C5.61219 3.88284 5.54762 3.92598 5.47656 3.95542C5.4055 3.98485 5.32933 4 5.25241 4C5.1755 4 5.09933 3.98485 5.02827 3.95542C4.95721 3.92598 4.89264 3.88284 4.83825 3.82845L2.91908 1.90345L0.999915 3.82845C0.890071 3.93829 0.741092 4 0.585749 4C0.430406 4 0.281426 3.93829 0.171583 3.82845C0.0617389 3.7186 2.90494e-05 3.56962 2.90359e-05 3.41428C2.90223e-05 3.25894 0.0617389 3.10996 0.171583 3.00011Z" fill="#F1F1F1"/>
</svg>
