<svg width="60" height="46" viewBox="0 0 60 46" fill="none" xmlns="http://www.w3.org/2000/svg">
<path d="M47.4998 9.10419C47.4998 8.31028 46.6604 7.66669 45.6248 7.66669L13.1248 7.66669C12.0893 7.66669 11.2498 8.31028 11.2498 9.10419C11.2498 9.8981 12.0893 10.5417 13.1248 10.5417L45.6248 10.5417C46.1242 10.5469 46.605 10.3971 46.9581 10.1264C47.3113 9.85568 47.5066 9.48701 47.4998 9.10419Z" fill="white"/>
<path d="M47.4998 22.5209C47.4998 21.7269 46.6604 21.0834 45.6248 21.0834L13.1248 21.0834C12.0893 21.0834 11.2498 21.7269 11.2498 22.5209C11.2498 23.3148 12.0893 23.9584 13.1248 23.9584L45.6248 23.9584C46.1242 23.9636 46.605 23.8138 46.9581 23.5431C47.3113 23.2723 47.5066 22.9037 47.4998 22.5209Z" fill="white"/>
<path d="M47.4998 35.9375C47.4998 35.1436 46.6604 34.5 45.6248 34.5L13.1248 34.5C12.0893 34.5 11.2498 35.1436 11.2498 35.9375C11.2498 36.7314 12.0893 37.375 13.1248 37.375L45.6248 37.375C46.1242 37.3802 46.605 37.2305 46.9581 36.9597C47.3113 36.689 47.5066 36.3203 47.4998 35.9375Z" fill="white"/>
</svg>
