<svg width="20" height="24" viewBox="0 0 20 24" fill="none" xmlns="http://www.w3.org/2000/svg">
<path fill-rule="evenodd" clip-rule="evenodd" d="M15.0003 5H5.00033C3.15938 5 1.66699 6.79086 1.66699 9V15C1.66699 17.2091 3.15938 19 5.00033 19H15.0003C16.8413 19 18.3337 17.2091 18.3337 15V9C18.3337 6.79086 16.8413 5 15.0003 5ZM5.00033 6.5H15.0003C15.5529 6.5 16.0828 6.76339 16.4735 7.23223C16.8642 7.70107 17.0837 8.33696 17.0837 9V13.25H2.91699V9C2.91699 7.61929 3.84973 6.5 5.00033 6.5ZM5.00033 17.5H15.0003C15.5529 17.5 16.0828 17.2366 16.4735 16.7678C16.8642 16.2989 17.0837 15.663 17.0837 15V14.75H2.91699V15C2.91699 16.3807 3.84973 17.5 5.00033 17.5Z" fill="#E2E0FF"/>
</svg>
