<svg width="16" height="16" viewBox="0 0 16 16" fill="none" xmlns="http://www.w3.org/2000/svg">
<path fill-rule="evenodd" clip-rule="evenodd" d="M2.31335 2.83331H2.98002L3.01335 2.83998C3.93746 2.85791 4.74491 3.46888 5.01335 4.35331L5.14669 4.81331H12.1C12.714 4.81611 13.2971 5.08333 13.7 5.54665C14.1018 6.0129 14.2796 6.63154 14.1867 7.23998L13.7867 9.99998C13.6535 11.0579 12.7596 11.855 11.6934 11.8666H7.77335C6.83689 11.8632 6.01218 11.2494 5.74002 10.3533L4.05335 4.66665C3.9242 4.17877 3.48469 3.83753 2.98002 3.83331H2.31335C2.03721 3.83331 1.81335 3.60946 1.81335 3.33331C1.81335 3.05717 2.03721 2.83331 2.31335 2.83331ZM6.70002 10.0333C6.84154 10.508 7.27804 10.8333 7.77335 10.8333H11.6934C12.2451 10.8273 12.7124 10.4248 12.8 9.87998L13.2 7.11331C13.2545 6.79127 13.1657 6.46149 12.9568 6.21037C12.748 5.95924 12.4399 5.81179 12.1134 5.80665H5.44669L6.70002 10.0333Z" fill="white"/>
<path d="M7.62002 12.6666C7.25183 12.6666 6.95335 12.9651 6.95335 13.3333C6.95335 13.7015 7.25183 14 7.62002 14C7.98821 14 8.28669 13.7015 8.28669 13.3333C8.28669 12.9651 7.98821 12.6666 7.62002 12.6666Z" fill="white"/>
<path d="M11.62 12.6666C11.2518 12.6666 10.9534 12.9651 10.9534 13.3333C10.9534 13.7015 11.2518 14 11.62 14C11.9882 14 12.2867 13.7015 12.2867 13.3333C12.2867 12.9651 11.9882 12.6666 11.62 12.6666Z" fill="white"/>
</svg>
