<svg width="20" height="20" viewBox="0 0 20 20" fill="none" xmlns="http://www.w3.org/2000/svg">
<path fill-rule="evenodd" clip-rule="evenodd" d="M15.0003 3.33325H5.00033C3.15938 3.33325 1.66699 4.82564 1.66699 6.66659V14.1666C1.66699 16.0075 3.15938 17.4999 5.00033 17.4999H15.0003C16.8413 17.4999 18.3337 16.0075 18.3337 14.1666V6.66659C18.3337 4.82564 16.8413 3.33325 15.0003 3.33325ZM5.00033 4.65825H15.0003C15.8884 4.65995 16.6691 5.24711 16.917 6.09992L10.6337 10.7583C10.4615 10.9266 10.228 11.0174 9.98727 11.0095C9.74656 11.0016 9.5195 10.8958 9.35866 10.7166L3.10033 6.10825C3.34345 5.25802 4.11608 4.66839 5.00033 4.65825ZM2.99199 14.1666C2.99199 15.2758 3.89115 16.1749 5.00033 16.1749H15.0003C16.1062 16.1703 17.0003 15.2725 17.0003 14.1666V7.47492L11.3337 11.6416C10.9715 11.9787 10.4951 12.1663 10.0003 12.1666C9.48594 12.1584 8.99295 11.9594 8.61699 11.6083L2.99199 7.44159V14.1666Z" fill="#E2E0FF"/>
</svg>
