<svg width="20" height="20" viewBox="0 0 20 20" fill="none" xmlns="http://www.w3.org/2000/svg">
<path d="M9.99967 10.8334C9.74597 10.8304 9.49744 10.9053 9.28754 11.0478C9.07765 11.1904 8.91646 11.3938 8.82569 11.6308C8.73491 11.8677 8.71889 12.1267 8.7798 12.373C8.8407 12.6194 8.9756 12.8411 9.16634 13.0084V14.1667C9.16634 14.3878 9.25414 14.5997 9.41042 14.756C9.5667 14.9123 9.77866 15.0001 9.99967 15.0001C10.2207 15.0001 10.4326 14.9123 10.5889 14.756C10.7452 14.5997 10.833 14.3878 10.833 14.1667V13.0084C11.0237 12.8411 11.1586 12.6194 11.2196 12.373C11.2805 12.1267 11.2644 11.8677 11.1737 11.6308C11.0829 11.3938 10.9217 11.1904 10.7118 11.0478C10.5019 10.9053 10.2534 10.8304 9.99967 10.8334V10.8334ZM14.1663 7.50008V5.83341C14.1663 4.72835 13.7274 3.66854 12.946 2.88714C12.1646 2.10573 11.1047 1.66675 9.99967 1.66675C8.89461 1.66675 7.8348 2.10573 7.0534 2.88714C6.27199 3.66854 5.83301 4.72835 5.83301 5.83341V7.50008C5.16997 7.50008 4.53408 7.76347 4.06524 8.23231C3.5964 8.70116 3.33301 9.33704 3.33301 10.0001V15.8334C3.33301 16.4965 3.5964 17.1323 4.06524 17.6012C4.53408 18.07 5.16997 18.3334 5.83301 18.3334H14.1663C14.8294 18.3334 15.4653 18.07 15.9341 17.6012C16.4029 17.1323 16.6663 16.4965 16.6663 15.8334V10.0001C16.6663 9.33704 16.4029 8.70116 15.9341 8.23231C15.4653 7.76347 14.8294 7.50008 14.1663 7.50008ZM7.49967 5.83341C7.49967 5.17037 7.76307 4.53449 8.23191 4.06565C8.70075 3.59681 9.33663 3.33341 9.99967 3.33341C10.6627 3.33341 11.2986 3.59681 11.7674 4.06565C12.2363 4.53449 12.4997 5.17037 12.4997 5.83341V7.50008H7.49967V5.83341ZM14.9997 15.8334C14.9997 16.0544 14.9119 16.2664 14.7556 16.4227C14.5993 16.579 14.3874 16.6667 14.1663 16.6667H5.83301C5.61199 16.6667 5.40003 16.579 5.24375 16.4227C5.08747 16.2664 4.99967 16.0544 4.99967 15.8334V10.0001C4.99967 9.77907 5.08747 9.56711 5.24375 9.41083C5.40003 9.25455 5.61199 9.16675 5.83301 9.16675H14.1663C14.3874 9.16675 14.5993 9.25455 14.7556 9.41083C14.9119 9.56711 14.9997 9.77907 14.9997 10.0001V15.8334Z" fill="#E2E0FF"/>
</svg>
