<svg width="20" height="24" viewBox="0 0 20 24" fill="none" xmlns="http://www.w3.org/2000/svg">
<path fill-rule="evenodd" clip-rule="evenodd" d="M16.3168 16.71L16.5168 17.85C16.7064 18.8356 16.5192 19.8713 16.0065 20.6742C15.4939 21.4771 14.7092 21.9633 13.8668 22H6.13349C5.29114 21.9633 4.50647 21.4771 3.99378 20.6742C3.4811 19.8713 3.29397 18.8356 3.48349 17.85L3.68349 16.71C3.91352 15.1668 5.01901 14.0327 6.32516 14H13.6752C14.9813 14.0327 16.0868 15.1668 16.3168 16.71ZM13.8668 20.49C14.29 20.4841 14.6882 20.2489 14.9502 19.85V19.86C15.2716 19.3762 15.3968 18.7458 15.2918 18.14L15.0918 17C14.9809 16.1552 14.3874 15.5226 13.6752 15.49H6.32516C5.61297 15.5226 5.01947 16.1552 4.9085 17L4.7085 18.14C4.60613 18.7426 4.73121 19.3687 5.05016 19.85C5.31211 20.2489 5.71034 20.4841 6.1335 20.49H13.8668Z" fill="#E2E0FF"/>
<path fill-rule="evenodd" clip-rule="evenodd" d="M10.4168 12H9.58348C7.74253 12 6.25015 10.2092 6.25015 8.00001V5.36001C6.24793 4.46807 6.54221 3.61189 7.0678 2.98119C7.59338 2.35049 8.30686 1.99735 9.05015 2.00001H10.9501C11.6934 1.99735 12.4069 2.35049 12.9325 2.98119C13.4581 3.61189 13.7524 4.46807 13.7501 5.36001V8.00001C13.7501 10.2092 12.2578 12 10.4168 12ZM9.05015 3.50002C8.19411 3.50002 7.50015 4.33277 7.50015 5.36001V8.00001C7.50015 9.38073 8.43289 10.5 9.58348 10.5H10.4168C11.5674 10.5 12.5001 9.38073 12.5001 8.00001V5.36001C12.5001 4.86671 12.3368 4.39361 12.0462 4.0448C11.7555 3.69598 11.3612 3.50002 10.9501 3.50002H9.05015Z" fill="#E2E0FF"/>
</svg>
