<svg width="20" height="20" viewBox="0 0 20 20" fill="none" xmlns="http://www.w3.org/2000/svg">
<path d="M15.8337 1.66675H4.16699C3.50395 1.66675 2.86807 1.93014 2.39923 2.39898C1.93038 2.86782 1.66699 3.50371 1.66699 4.16675V15.0001V15.8334C1.66699 16.4965 1.93038 17.1323 2.39923 17.6012C2.86807 18.07 3.50395 18.3334 4.16699 18.3334H15.8337C16.4967 18.3334 17.1326 18.07 17.6014 17.6012C18.0703 17.1323 18.3337 16.4965 18.3337 15.8334V4.16675C18.3337 3.50371 18.0703 2.86782 17.6014 2.39898C17.1326 1.93014 16.4967 1.66675 15.8337 1.66675ZM4.16699 3.33341H15.8337C16.0547 3.33341 16.2666 3.42121 16.4229 3.57749C16.5792 3.73377 16.667 3.94573 16.667 4.16675V14.6584L15.1003 13.0917C14.6481 12.6408 14.0403 12.3801 13.4019 12.363C12.7634 12.346 12.1427 12.5739 11.667 13.0001L9.25866 10.5917C8.78991 10.1236 8.15449 9.86061 7.49199 9.86061C6.82949 9.86061 6.19408 10.1236 5.72533 10.5917L3.33366 12.9917V4.16675C3.33366 3.94573 3.42146 3.73377 3.57774 3.57749C3.73402 3.42121 3.94598 3.33341 4.16699 3.33341V3.33341ZM4.16699 16.6667C3.94598 16.6667 3.73402 16.579 3.57774 16.4227C3.42146 16.2664 3.33366 16.0544 3.33366 15.8334V15.3417L6.90866 11.7667C6.98613 11.6886 7.0783 11.6266 7.17984 11.5843C7.28139 11.542 7.39032 11.5202 7.50033 11.5202C7.61034 11.5202 7.71926 11.542 7.82081 11.5843C7.92236 11.6266 8.01452 11.6886 8.09199 11.7667L11.0753 14.7584C11.2214 14.8996 11.414 14.9826 11.617 14.9917H11.7253C11.9244 14.9765 12.1124 14.8942 12.2587 14.7584V14.7584L12.742 14.2667C12.8195 14.1886 12.9116 14.1266 13.0132 14.0843C13.1147 14.042 13.2236 14.0202 13.3337 14.0202C13.4437 14.0202 13.5526 14.042 13.6541 14.0843C13.7557 14.1266 13.8479 14.1886 13.9253 14.2667L16.217 16.5584C16.1012 16.628 15.9688 16.6654 15.8337 16.6667H4.16699ZM12.7753 9.64175C13.2533 9.64175 13.7205 9.50001 14.118 9.23447C14.5154 8.96892 14.8251 8.59149 15.008 8.1499C15.1909 7.70831 15.2388 7.2224 15.1456 6.75361C15.0523 6.28483 14.8221 5.85422 14.4842 5.51624C14.1462 5.17826 13.7156 4.9481 13.2468 4.85485C12.778 4.7616 12.2921 4.80946 11.8505 4.99237C11.4089 5.17528 11.0315 5.48503 10.7659 5.88245C10.5004 6.27987 10.3587 6.74711 10.3587 7.22508C10.3587 7.86602 10.6133 8.48071 11.0665 8.93392C11.5197 9.38714 12.1344 9.64175 12.7753 9.64175V9.64175ZM12.7753 6.30841C12.9566 6.30841 13.1339 6.36218 13.2846 6.4629C13.4353 6.56363 13.5528 6.70679 13.6222 6.87429C13.6916 7.04179 13.7097 7.2261 13.6744 7.40391C13.639 7.58173 13.5517 7.74506 13.4235 7.87326C13.2953 8.00146 13.132 8.08876 12.9542 8.12413C12.7763 8.1595 12.592 8.14135 12.4245 8.07197C12.257 8.00259 12.1139 7.8851 12.0131 7.73435C11.9124 7.58361 11.8587 7.40638 11.8587 7.22508C11.8587 6.98197 11.9552 6.74881 12.1271 6.5769C12.2991 6.40499 12.5322 6.30841 12.7753 6.30841V6.30841Z" fill="#E2E0FF"/>
</svg>
