<svg width="20" height="20" viewBox="0 0 20 20" fill="none" xmlns="http://www.w3.org/2000/svg">
<path fill-rule="evenodd" clip-rule="evenodd" d="M14.9998 4.16675H4.99984C3.15889 4.16675 1.6665 5.65913 1.6665 7.50008V12.5001C1.6665 14.341 3.15889 15.8334 4.99984 15.8334H14.9998C16.8408 15.8334 18.3332 14.341 18.3332 12.5001V7.50008C18.3332 5.65913 16.8408 4.16675 14.9998 4.16675ZM4.99984 5.41675H14.9998C15.5524 5.41675 16.0823 5.63624 16.473 6.02694C16.8637 6.41764 17.0832 6.94755 17.0832 7.50008V11.0417H2.9165V7.50008C2.9165 6.34949 3.84924 5.41675 4.99984 5.41675ZM4.99984 14.5834H14.9998C15.5524 14.5834 16.0823 14.3639 16.473 13.9732C16.8637 13.5825 17.0832 13.0526 17.0832 12.5001V12.2917H2.9165V12.5001C2.9165 13.6507 3.84924 14.5834 4.99984 14.5834Z" fill="white" fill-opacity="0.75"/>
</svg>
