<svg width="12" height="12" viewBox="0 0 12 12" fill="none" xmlns="http://www.w3.org/2000/svg">
<g clip-path="url(#clip0_161_931)">
<path d="M11.3336 3.46121C11.3341 3.39103 11.3206 3.32146 11.2941 3.25648C11.2675 3.1915 11.2284 3.13241 11.179 3.08258L8.91765 0.821412C8.86782 0.771986 8.80872 0.732882 8.74374 0.706343C8.67876 0.679804 8.60918 0.666351 8.53899 0.666757C8.4688 0.666351 8.39922 0.679804 8.33424 0.706343C8.26926 0.732882 8.21016 0.771986 8.16032 0.821412L6.65099 2.33063L0.821667 8.15953C0.772237 8.20936 0.733131 8.26846 0.70659 8.33343C0.680049 8.39841 0.666595 8.46798 0.667001 8.53817V10.7993C0.667001 10.9408 0.723191 11.0764 0.823211 11.1764C0.92323 11.2764 1.05888 11.3326 1.20033 11.3326H3.46166C3.53629 11.3367 3.61094 11.325 3.68077 11.2984C3.75059 11.2717 3.81404 11.2307 3.867 11.178L9.66432 5.34907L11.179 3.86652C11.2277 3.81483 11.2673 3.75534 11.2963 3.69053C11.3015 3.64802 11.3015 3.60505 11.2963 3.56254C11.2988 3.53772 11.2988 3.5127 11.2963 3.48788L11.3336 3.46121ZM3.243 10.266H1.73367V8.75682L7.02966 3.46121L8.53899 4.97044L3.243 10.266ZM9.29099 4.21849L7.78166 2.70927L8.53899 1.95733L10.043 3.46121L9.29099 4.21849Z" fill="white"/>
</g>
<defs>
<clipPath id="clip0_161_931">
<rect width="12" height="12" fill="white"/>
</clipPath>
</defs>
</svg>
