<svg width="20" height="20" viewBox="0 0 20 20" fill="none" xmlns="http://www.w3.org/2000/svg">
<path fill-rule="evenodd" clip-rule="evenodd" d="M4.13454 1.66723H15.9512V1.67556C16.947 1.65823 17.8515 2.25358 18.2293 3.17509C18.6071 4.0966 18.3809 5.15552 17.6595 5.84223L13.6845 9.81723C13.2421 10.2605 12.9882 10.8577 12.9762 11.4839V15.1506C12.9749 15.9109 12.617 16.6266 12.0095 17.0839L10.9762 17.8589C10.2455 18.415 9.26209 18.5071 8.44077 18.0964C7.61946 17.6858 7.10314 16.8438 7.10954 15.9256V11.4839C7.09751 10.8577 6.84368 10.2605 6.4012 9.81723L2.4262 5.84223C1.6985 5.15655 1.46818 4.09354 1.84684 3.16815C2.22549 2.24277 3.1349 1.64612 4.13454 1.66723ZM17.0345 3.64223C16.8547 3.20255 16.4262 2.91581 15.9512 2.91723H4.13454C3.6595 2.91581 3.23104 3.20255 3.0512 3.64223C2.86556 4.07978 2.96821 4.58645 3.30954 4.91723L7.3012 8.89223C7.9921 9.57733 8.37934 10.5109 8.3762 11.4839V15.9256C8.37175 16.2328 8.48954 16.5292 8.70365 16.7495C8.91776 16.9699 9.21065 17.0962 9.51787 17.1006C9.76893 17.0994 10.0124 17.0144 10.2095 16.8589L11.2429 16.0839C11.5366 15.8636 11.7095 15.5178 11.7095 15.1506V11.4839C11.7108 10.5085 12.1042 9.57456 12.8012 8.89223L16.7762 4.91723C17.1175 4.58645 17.2202 4.07978 17.0345 3.64223Z" fill="white"/>
</svg>
