<svg width="22" height="22" viewBox="0 0 22 22" fill="none" xmlns="http://www.w3.org/2000/svg">
<path d="M18.7367 3.17167C18.6279 2.91833 18.3799 2.75301 18.1042 2.75H13.5208C13.1411 2.75 12.8333 3.0578 12.8333 3.4375C12.8333 3.8172 13.1411 4.125 13.5208 4.125H16.445L11.2017 9.36833C10.9336 9.63675 10.9336 10.0716 11.2017 10.34C11.4701 10.6081 11.9049 10.6081 12.1733 10.34L17.4167 5.09667V8.02083C17.4167 8.40053 17.7245 8.70833 18.1042 8.70833C18.4839 8.70833 18.7917 8.40053 18.7917 8.02083V3.4375C18.7912 3.34611 18.7725 3.25574 18.7367 3.17167Z" fill="#9C84FF"/>
<path d="M16.2708 10.0833C15.8932 10.0883 15.5883 10.3932 15.5833 10.7708V14.4375C15.5783 16.0808 14.2474 17.4116 12.6042 17.4167H7.10417C5.46091 17.4116 4.13003 16.0808 4.125 14.4375V8.9375C4.13003 7.29424 5.46091 5.96337 7.10417 5.95833H10.7708C11.1505 5.95833 11.4583 5.65053 11.4583 5.27083C11.4583 4.89114 11.1505 4.58333 10.7708 4.58333H7.10417C4.69943 4.58333 2.75 6.53276 2.75 8.9375V14.4375C2.75 16.8422 4.69943 18.7917 7.10417 18.7917H12.6042C15.0089 18.7917 16.9583 16.8422 16.9583 14.4375V10.7708C16.9534 10.3932 16.6485 10.0883 16.2708 10.0833Z" fill="#9C84FF"/>
</svg>
