<svg width="16" height="16" viewBox="0 0 16 16" fill="none" xmlns="http://www.w3.org/2000/svg">
<path d="M13.1403 8.47329L9.14033 12.4733C9.07817 12.5355 9.00437 12.5848 8.92316 12.6184C8.84194 12.652 8.7549 12.6694 8.66699 12.6694C8.57909 12.6694 8.49204 12.652 8.41083 12.6184C8.32961 12.5848 8.25582 12.5355 8.19366 12.4733C8.1315 12.4111 8.08219 12.3373 8.04855 12.2561C8.01491 12.1749 7.9976 12.0879 7.9976 12C7.9976 11.9121 8.01491 11.825 8.04855 11.7438C8.08219 11.6626 8.1315 11.5888 8.19366 11.5266L11.0603 8.66663H3.33366C3.15685 8.66663 2.98728 8.59639 2.86225 8.47136C2.73723 8.34634 2.66699 8.17677 2.66699 7.99996C2.66699 7.82315 2.73723 7.65358 2.86225 7.52856C2.98728 7.40353 3.15685 7.33329 3.33366 7.33329H11.0603L8.19366 4.47329C8.06812 4.34776 7.9976 4.1775 7.9976 3.99996C7.9976 3.82243 8.06812 3.65216 8.19366 3.52663C8.31919 3.40109 8.48946 3.33057 8.66699 3.33057C8.84453 3.33057 9.01479 3.40109 9.14033 3.52663L13.1403 7.52663C13.2028 7.5886 13.2524 7.66234 13.2863 7.74358C13.3201 7.82482 13.3375 7.91195 13.3375 7.99996C13.3375 8.08797 13.3201 8.17511 13.2863 8.25635C13.2524 8.33758 13.2028 8.41132 13.1403 8.47329Z" fill="white"/>
</svg>
