<svg width="18" height="18" viewBox="0 0 18 18" fill="none" xmlns="http://www.w3.org/2000/svg">
<path fill-rule="evenodd" clip-rule="evenodd" d="M15.8299 11.61C15.4967 11.325 15.3049 10.9085 15.3049 10.47V6.855C15.3049 3.8925 12.6199 1.5 9.30493 1.5C5.98993 1.5 3.30493 3.8925 3.30493 6.855V10.47C3.30495 10.9085 3.11313 11.325 2.77993 11.61C1.64743 12.6225 2.44993 14.3475 4.05493 14.3475H6.90493C7.26856 15.3603 8.22883 16.0358 9.30493 16.0358C10.381 16.0358 11.3413 15.3603 11.7049 14.3475H14.5549C16.1599 14.3475 16.9624 12.6225 15.8299 11.61ZM9.30493 14.91C8.85852 14.9083 8.43786 14.7008 8.16493 14.3475H10.4149C10.1507 14.6952 9.74157 14.9025 9.30493 14.91ZM14.5624 13.2225C14.8351 13.2472 15.0947 13.101 15.2149 12.855C15.2733 12.7068 15.2202 12.538 15.0874 12.45C14.5223 11.9459 14.1957 11.2272 14.1874 10.47V6.855C14.1874 4.5225 11.9974 2.625 9.31243 2.625C6.62743 2.625 4.43743 4.5225 4.43743 6.855V10.47C4.4292 11.2272 4.10251 11.9459 3.53743 12.45C3.40192 12.5358 3.34548 12.7051 3.40243 12.855C3.52265 13.101 3.78225 13.2472 4.05493 13.2225H14.5624Z" fill="#F4F1FF"/>
</svg>
