<svg width="17" height="17" viewBox="0 0 17 17" fill="none" xmlns="http://www.w3.org/2000/svg">
<path d="M13.9612 9.00291L9.71117 13.2529C9.64512 13.3189 9.56672 13.3713 9.48043 13.4071C9.39414 13.4428 9.30165 13.4612 9.20825 13.4612C9.11485 13.4612 9.02237 13.4428 8.93607 13.4071C8.84978 13.3713 8.77138 13.3189 8.70534 13.2529C8.63929 13.1869 8.5869 13.1085 8.55116 13.0222C8.51542 12.9359 8.49702 12.8434 8.49702 12.75C8.49702 12.6566 8.51542 12.5641 8.55116 12.4778C8.5869 12.3915 8.63929 12.3131 8.70534 12.2471L11.7512 9.20832H3.54159C3.35372 9.20832 3.17356 9.13369 3.04072 9.00086C2.90788 8.86802 2.83325 8.68785 2.83325 8.49999C2.83325 8.31213 2.90788 8.13196 3.04072 7.99912C3.17356 7.86628 3.35372 7.79166 3.54159 7.79166H11.7512L8.70534 4.75291C8.57195 4.61952 8.49702 4.43862 8.49702 4.24999C8.49702 4.06136 8.57195 3.88045 8.70534 3.74707C8.83872 3.61369 9.01962 3.53876 9.20825 3.53876C9.39688 3.53876 9.57779 3.61369 9.71117 3.74707L13.9612 7.99707C14.0276 8.06292 14.0803 8.14126 14.1162 8.22758C14.1522 8.3139 14.1707 8.40648 14.1707 8.49999C14.1707 8.5935 14.1522 8.68608 14.1162 8.7724C14.0803 8.85871 14.0276 8.93706 13.9612 9.00291Z" fill="#DCD3FF"/>
</svg>
