<svg width="16" height="16" viewBox="0 0 16 16" fill="none" xmlns="http://www.w3.org/2000/svg">
<mask id="mask0_30_191" style="mask-type:alpha" maskUnits="userSpaceOnUse" x="0" y="0" width="16" height="16">
<path d="M2.99334 7.99996C3.08224 8.09359 3.20431 8.14864 3.33334 8.15329C3.47165 8.15585 3.60469 8.10022 3.7 7.99996L7.5 4.19996V13.0133C7.50359 13.288 7.72536 13.5098 8 13.5133C8.27464 13.5098 8.49641 13.288 8.5 13.0133V4.19995L12.3 7.99996C12.4274 8.13095 12.6151 8.18402 12.7922 8.13917C12.9694 8.09431 13.1092 7.95835 13.1589 7.7825C13.2086 7.60665 13.1608 7.41762 13.0333 7.28662L8.36667 2.61996C8.1686 2.43202 7.85807 2.43202 7.66 2.61996L2.99334 7.28662C2.89765 7.38063 2.84375 7.50915 2.84375 7.64329C2.84375 7.77743 2.89765 7.90595 2.99334 7.99996Z" fill="black"/>
</mask>
<g mask="url(#mask0_30_191)">
<rect x="-17.6" y="-8.80005" width="51.2" height="32.8" fill="url(#paint0_linear_30_191)"/>
</g>
<defs>
<linearGradient id="paint0_linear_30_191" x1="-20.1326" y1="-8.80005" x2="37.0175" y2="0.449162" gradientUnits="userSpaceOnUse">
<stop stop-color="#F0D602"/>
<stop offset="1" stop-color="#7102FF"/>
</linearGradient>
</defs>
</svg>
