<svg width="18" height="18" viewBox="0 0 18 18" fill="none" xmlns="http://www.w3.org/2000/svg">
<path fill-rule="evenodd" clip-rule="evenodd" d="M14.4198 6.54808C14.5627 6.89618 14.9012 7.12391 15.2775 7.125C15.7882 7.12912 16.2 7.54429 16.2 8.055V9.66C16.2 10.1736 15.7836 10.59 15.27 10.59C14.8937 10.5911 14.5552 10.8188 14.4123 11.1669C14.2695 11.515 14.3505 11.9149 14.6175 12.18C14.9757 12.5471 14.9757 13.1329 14.6175 13.5L13.4925 14.625C13.1254 14.9832 12.5396 14.9832 12.1725 14.625C12.0032 14.4456 11.7667 14.345 11.52 14.3475C11.2721 14.3455 11.0336 14.4426 10.8575 14.6172C10.6815 14.7919 10.5825 15.0295 10.5825 15.2775C10.5825 15.7911 10.1661 16.2075 9.6525 16.2075H8.0475C7.53387 16.2075 7.1175 15.7911 7.1175 15.2775C7.11751 15.0295 7.0185 14.7919 6.84246 14.6172C6.66643 14.4426 6.42795 14.3455 6.18 14.3475C5.93333 14.345 5.69682 14.4456 5.5275 14.625C5.16041 14.9832 4.57459 14.9832 4.2075 14.625L3.0825 13.5C2.72428 13.1329 2.72428 12.5471 3.0825 12.18C3.34954 11.9149 3.43052 11.515 3.28766 11.1669C3.14481 10.8188 2.80627 10.5911 2.43 10.59C2.18335 10.59 1.9468 10.492 1.77239 10.3176C1.59798 10.1432 1.5 9.90665 1.5 9.66V8.055C1.5 7.54137 1.91638 7.125 2.43 7.125C2.80627 7.12391 3.14481 6.89618 3.28766 6.54808C3.43052 6.19998 3.34954 5.80009 3.0825 5.535C2.72428 5.16791 2.72428 4.58209 3.0825 4.215L4.2075 3.09C4.57459 2.73178 5.16041 2.73178 5.5275 3.09C5.69682 3.2694 5.93333 3.36998 6.18 3.3675C6.42925 3.36952 6.66888 3.27139 6.84514 3.09514C7.02139 2.91888 7.11952 2.67925 7.1175 2.43C7.1175 1.91638 7.53387 1.5 8.0475 1.5H9.66C10.1736 1.5 10.59 1.91638 10.59 2.43C10.588 2.67925 10.6861 2.91888 10.8624 3.09514C11.0386 3.27139 11.2782 3.36952 11.5275 3.3675C11.7742 3.36998 12.0107 3.2694 12.18 3.09C12.5471 2.73178 13.1329 2.73178 13.5 3.09L14.625 4.215C14.9832 4.58209 14.9832 5.16791 14.625 5.535C14.358 5.80009 14.277 6.19998 14.4198 6.54808ZM13.35 10.7325C13.6428 10.0187 14.3132 9.53109 15.0825 9.4725L15.06 8.2425C14.2991 8.17577 13.6391 7.68952 13.35 6.9825C13.0668 6.27381 13.1965 5.46676 13.6875 4.8825L12.825 4.02C12.4592 4.32631 11.9971 4.49364 11.52 4.4925C10.4571 4.4899 9.56897 3.68276 9.465 2.625H8.235C8.13438 3.68445 7.24421 4.4934 6.18 4.4925C5.70292 4.49364 5.24076 4.32631 4.875 4.02L4.035 4.8825C4.5184 5.47122 4.63939 6.27786 4.35 6.9825C4.06085 7.68952 3.40095 8.17577 2.64 8.2425V9.4725C3.40095 9.53923 4.06085 10.0255 4.35 10.7325C4.63323 11.4412 4.50352 12.2482 4.0125 12.8325L4.875 13.695C5.24076 13.3887 5.70292 13.2214 6.18 13.2225C7.24286 13.2251 8.13103 14.0322 8.235 15.09H9.465C9.55877 14.0271 10.453 13.2145 11.52 13.2225C11.9971 13.2214 12.4592 13.3887 12.825 13.695L13.665 12.8325C13.1816 12.2438 13.0606 11.4371 13.35 10.7325Z" fill="#F4F1FF"/>
<path fill-rule="evenodd" clip-rule="evenodd" d="M6.255 8.8575C6.255 7.42432 7.41682 6.2625 8.85 6.2625C9.53824 6.2625 10.1983 6.5359 10.6849 7.02256C11.1716 7.50922 11.445 8.16926 11.445 8.8575C11.445 10.2907 10.2832 11.4525 8.85 11.4525C7.41682 11.4525 6.255 10.2907 6.255 8.8575ZM7.35 8.8575C7.35 9.68593 8.02157 10.3575 8.85 10.3575C9.67843 10.3575 10.35 9.68593 10.35 8.8575C10.35 8.02907 9.67843 7.3575 8.85 7.3575C8.02157 7.3575 7.35 8.02907 7.35 8.8575Z" fill="#F4F1FF"/>
</svg>
