<svg width="18" height="18" viewBox="0 0 18 18" fill="none" xmlns="http://www.w3.org/2000/svg">
<path d="M11.82 4.98267C11.5093 4.98267 11.2575 5.23451 11.2575 5.54517C11.2575 5.85583 11.5093 6.10767 11.82 6.10767C13.164 6.11581 14.2527 7.20117 14.265 8.54517V10.0452C14.2527 11.3892 13.164 12.4745 11.82 12.4827H10.155L11.1825 11.4627C11.4018 11.2431 11.4018 10.8873 11.1825 10.6677C11.078 10.5605 10.9346 10.5 10.785 10.5C10.6353 10.5 10.4919 10.5605 10.3875 10.6677L8.39996 12.6477C8.34911 12.6997 8.30842 12.7607 8.27996 12.8277C8.22764 12.9679 8.22764 13.1224 8.27996 13.2627C8.30842 13.3296 8.34911 13.3906 8.39996 13.4427L10.3875 15.4227C10.6071 15.642 10.9628 15.642 11.1825 15.4227C11.4018 15.2031 11.4018 14.8473 11.1825 14.6277L10.155 13.6077H11.82C13.7853 13.5995 15.3776 12.0105 15.39 10.0452V8.54517C15.3776 6.57985 13.7853 4.99085 11.82 4.98267Z" fill="#F4F1FF"/>
<path d="M9.36 5.76268C9.41231 5.6224 9.41231 5.46796 9.36 5.32768C9.32891 5.26219 9.28849 5.20156 9.24 5.14768L7.2525 3.16768C7.14803 3.06047 7.00469 3 6.855 3C6.70531 3 6.56197 3.06047 6.4575 3.16768C6.23816 3.38729 6.23816 3.74306 6.4575 3.96268L7.485 4.98268H5.82C3.85467 4.99086 2.26232 6.57986 2.25 8.54518V10.0452C2.26232 12.0105 3.85467 13.5995 5.82 13.6077C6.13066 13.6077 6.3825 13.3558 6.3825 13.0452C6.3825 12.7345 6.13066 12.4827 5.82 12.4827C4.47597 12.4745 3.38727 11.3892 3.375 10.0452V8.54518C3.38727 7.20118 4.47597 6.11582 5.82 6.10768H7.4775L6.4575 7.12768C6.23816 7.34729 6.23816 7.70306 6.4575 7.92268C6.67711 8.14202 7.03289 8.14202 7.2525 7.92268L9.24 5.94268C9.28849 5.88879 9.32891 5.82816 9.36 5.76268Z" fill="#F4F1FF"/>
</svg>
