<svg width="24" height="24" viewBox="0 0 24 24" fill="none" xmlns="http://www.w3.org/2000/svg">
<path d="M7.29006 13.29L11.2901 9.29C11.383 9.19627 11.4936 9.12188 11.6155 9.07111C11.7373 9.02034 11.868 8.9942 12.0001 8.9942C12.1321 8.9942 12.2628 9.02034 12.3846 9.07111C12.5065 9.12188 12.6171 9.19627 12.7101 9.29L16.7101 13.29C16.8033 13.3832 16.8773 13.4939 16.9277 13.6157C16.9782 13.7376 17.0042 13.8681 17.0042 14C17.0042 14.1319 16.9782 14.2624 16.9277 14.3842C16.8773 14.5061 16.8033 14.6168 16.7101 14.71C16.6168 14.8032 16.5061 14.8772 16.3843 14.9277C16.2625 14.9781 16.1319 15.0041 16.0001 15.0041C15.8682 15.0041 15.7376 14.9781 15.6158 14.9277C15.494 14.8772 15.3833 14.8032 15.2901 14.71L12.0001 11.41L8.71006 14.71C8.52175 14.8983 8.26636 15.0041 8.00006 15.0041C7.73376 15.0041 7.47836 14.8983 7.29006 14.71C7.10176 14.5217 6.99597 14.2663 6.99597 14C6.99597 13.7337 7.10176 13.4783 7.29006 13.29Z" fill="#6541F7"/>
</svg>
