<svg width="18" height="18" viewBox="0 0 18 18" fill="none" xmlns="http://www.w3.org/2000/svg">
<path fill-rule="evenodd" clip-rule="evenodd" d="M16.5 11.8636C16.5 13.7464 14.9737 15.2727 13.0909 15.2727H4.90909C3.0263 15.2727 1.5 13.7464 1.5 11.8636V6.40909C1.5 4.5263 3.0263 3 4.90909 3H13.0909C14.9737 3 16.5 4.5263 16.5 6.40909V11.8636ZM4.90909 4.22045H13.0909C14.2997 4.22045 15.2795 5.20034 15.2795 6.40909V7.09091H13.0909C11.9612 7.09091 11.0455 8.00669 11.0455 9.13636C11.0455 10.266 11.9612 11.1818 13.0909 11.1818H15.2795V11.8636C15.2795 13.0724 14.2997 14.0523 13.0909 14.0523H4.90909C3.70034 14.0523 2.72045 13.0724 2.72045 11.8636V6.40909C2.72045 5.20034 3.70034 4.22045 4.90909 4.22045ZM15.2795 9.96136V8.31136H13.0909C12.6353 8.31136 12.2659 8.68073 12.2659 9.13636C12.2659 9.592 12.6353 9.96136 13.0909 9.96136H15.2795Z" fill="#F4F1FF"/>
</svg>
