<svg width="20" height="24" viewBox="0 0 20 24" fill="none" xmlns="http://www.w3.org/2000/svg">
<path fill-rule="evenodd" clip-rule="evenodd" d="M18.3337 15.8182C18.3337 18.3286 16.6378 20.3636 14.5458 20.3636H5.45487C3.36288 20.3636 1.66699 18.3286 1.66699 15.8182V8.54545C1.66699 6.03507 3.36288 4 5.45487 4H14.5458C16.6378 4 18.3337 6.03507 18.3337 8.54545V15.8182ZM5.45487 5.62727H14.5458C15.8888 5.62727 16.9776 6.93379 16.9776 8.54545V9.45455H14.5458C13.2906 9.45455 12.2731 10.6756 12.2731 12.1818C12.2731 13.688 13.2906 14.9091 14.5458 14.9091H16.9776V15.8182C16.9776 17.4298 15.8888 18.7364 14.5458 18.7364H5.45487C4.11182 18.7364 3.02305 17.4298 3.02305 15.8182V8.54545C3.02305 6.93379 4.11182 5.62727 5.45487 5.62727ZM16.9776 13.2818V11.0818H14.5458C14.0395 11.0818 13.6291 11.5743 13.6291 12.1818C13.6291 12.7893 14.0395 13.2818 14.5458 13.2818H16.9776Z" fill="#E2E0FF"/>
</svg>
